<?xml version="1.0" encoding="UTF-8" standalone="no"?>
<!DOCTYPE svg PUBLIC "-//W3C//DTD SVG 1.1//EN" "http://www.w3.org/Graphics/SVG/1.1/DTD/svg11.dtd">
<svg width="100%" height="100%" viewBox="0 0 735 407" version="1.1" xmlns="http://www.w3.org/2000/svg" xmlns:xlink="http://www.w3.org/1999/xlink" xml:space="preserve" xmlns:serif="http://www.serif.com/" style="fill-rule:evenodd;clip-rule:evenodd;stroke-linejoin:round;stroke-miterlimit:2;">
    <g transform="matrix(1,0,0,1,-2353.95,-121.137)">
        <g transform="matrix(1,0,0,1,-0.333333,0)">
            <g transform="matrix(1.22446,0,0,1,-1463.87,-385.559)">
                <path d="M3393.65,531.046C3406.24,531.897 3447.07,509.781 3461.45,510.44C3479.61,511.271 3504.95,528.844 3527.12,528.505C3549.6,528.161 3576.57,511.493 3596.32,508.374C3612.69,505.789 3629.41,506.137 3645.62,509.789C3661.84,513.442 3675.22,529.045 3693.62,530.288C3706.21,531.138 3718.2,521.118 3718.2,521.118L3718.2,913.591L3118.23,913.591L3118.23,522.017C3118.23,522.017 3146.85,510.528 3161.48,511.198C3179.63,512.029 3204.98,529.603 3227.14,529.263C3249.62,528.919 3276.59,512.252 3296.34,509.132C3312.71,506.547 3329.43,506.895 3345.65,510.548C3361.87,514.2 3375.25,529.803 3393.65,531.046Z" style="fill:rgb(12,150,145);fill-opacity:0.25;"/>
            </g>
        </g>
    </g>
</svg>
