<?xml version="1.0" encoding="UTF-8" standalone="no"?>
<!DOCTYPE svg PUBLIC "-//W3C//DTD SVG 1.1//EN" "http://www.w3.org/Graphics/SVG/1.1/DTD/svg11.dtd">
<svg width="100%" height="100%" viewBox="0 0 426 329" version="1.1" xmlns="http://www.w3.org/2000/svg" xmlns:xlink="http://www.w3.org/1999/xlink" xml:space="preserve" xmlns:serif="http://www.serif.com/" style="fill-rule:evenodd;clip-rule:evenodd;stroke-linejoin:round;stroke-miterlimit:2;">
    <g transform="matrix(1,0,0,1,-269.391,-120.258)">
        <g transform="matrix(1,0,0,1,-478.598,-256.397)">
            <path d="M1124.25,448.124L1161.84,476.958L1173.3,515.468L1168.94,528.155L1108.89,555.304L1054.69,552.813L1016.28,539.688L901.88,545.565L859.824,565.392L787.273,579.475L761.622,551.792L786.442,514.303L779.914,507.9L763.348,514.344L747.989,493.847L771.833,439.772L838.394,401.011L852.545,379.405L871.244,376.654L935.307,417.194L1007.69,435.612L1037,429.25L1124.25,448.124ZM851.352,427.503L861.884,476.871L896.589,509.867L917.637,504.785L914.572,491.578L922.172,479.796L923.189,453.913L913.301,421.92L877.377,400.893L861.845,404.667L851.352,427.503ZM1026.96,487.751L1026.08,504.536L1038.81,503.175L1050.55,495.897L1066.09,500.652L1074.21,499.86L1069.3,477.981L1045.26,471.144L1026.96,487.751ZM1068.86,455.301L1073.33,463.467L1095.99,475.292L1107.15,470.95L1123.68,477.469L1131.08,489.1L1148.05,494.179L1148.12,482.248L1141.3,473.86L1103.26,458.109L1068.86,455.301ZM940.981,444.505L945.436,464.491L937.987,486.742L953.981,506.98L1001.97,503.127L1017.74,489.456L1008.34,462.482L970.554,437.133L940.981,444.505ZM824.537,431.853L795.8,450.518L800.726,458.088L821.265,461.059L827.892,475.597L813.162,498.472L819.044,516.533L852.852,518.174L848.625,469.726L824.537,431.853ZM1160.2,541.156L1159.98,555.498L1150.89,573.806L1148.98,556.452L1146.24,546.774L1160.2,541.156ZM1142.77,548.346L1142.58,562.962L1134.88,582.007L1132.58,563.202L1129.06,554.203L1142.77,548.346ZM1124.75,555.412L1124.32,567.208L1114.59,585.227L1114.03,569.222L1112.61,561.78L1124.75,555.412ZM1127.11,631.005L1136.52,605.924L1141.4,620.787L1140.8,630.621L1127.11,631.005ZM1120.32,630.576L1108.26,630.678L1111.77,624.048L1116.89,610.397L1120.68,623.264L1120.32,630.576ZM1102.4,629.225L1085.86,630.298L1091.06,620.974L1098.09,602.023L1103.92,619.319L1102.4,629.225ZM1080.9,629.828L1069.59,629.509L1072.89,624.236L1077.46,611.858L1081.82,623.938L1080.9,629.828ZM1093.18,561.59L1108.46,562.419L1105.55,576.07L1092.49,593.495L1094.16,577.466L1093.18,561.59ZM1089.02,562.153L1086.29,576.365L1073.36,596.169L1074.57,576.025L1073.3,561.833L1089.02,562.153ZM1067.95,561.329L1065.79,575.739L1052.68,596.598L1053.16,573.678L1051.96,560.788L1067.95,561.329ZM1046.9,559.338L1041.01,575.843L1023.54,592.479L1027.73,570.167L1028.27,552.256L1046.9,559.338ZM1045.77,628.844L1052.32,618.86L1059.6,604.677L1063.54,620.038L1061.79,629.074L1045.77,628.844ZM1039.11,596.598L1040.3,616.245L1034.83,628.616L1020.24,619.824L1028.05,611.454L1039.11,596.598ZM1019.2,594.221L1019.01,609.359L1015.83,616.452L1004.28,610.118L1019.2,594.221ZM1002.99,590.127L1003.11,602.577L1000.84,607.958L989.799,601.103L1002.99,590.127ZM1001.63,581.495L1004.93,561.737L1004.51,548.168L1015.71,547.522L1023.36,550.194L1017.74,566.687L1001.63,581.495ZM987.445,578.583L987.457,593.395L983.167,597.378L972.42,591.105L987.445,578.583ZM972.587,569.327L972.222,585.663L968.788,589.61L955.875,582.764L972.587,569.327ZM968.768,568.655L968.88,550.443L982.448,549.777L979.858,558.455L968.768,568.655ZM982.647,577.158L985.578,561.401L986.773,549.701L1001.44,548.885L996.209,563.399L982.647,577.158ZM750.324,591.408L768.984,570.218L784.705,587.017L864.127,572.975L878.128,565.259L894.78,568.885L956.201,590.565L1035.14,635.835L1146.94,638.235L1130.73,685.839L1088.2,698.699L963.788,705.034L870.13,690.082L750.324,591.408Z" style="fill:rgb(255,255,255);"/>
        </g>
    </g>
</svg>
